<svg width="220" height="50" viewBox="0 0 220 50" fill="none" xmlns="http://www.w3.org/2000/svg">
<g clip-path="url(#clip0_1355_11743)">
<path d="M41.5779 9.05573C40.1527 3.84869 35.231 0 29.3967 0H19.6992C11.8979 0 5.55511 6.12497 5.55511 13.6536V27.2248H0V30.2009H5.55511V39.236C5.55511 40.4627 6.05103 41.6193 6.95119 42.4879C7.85134 43.3564 9.04321 43.8339 10.3143 43.8339H19.6992V50.0041H22.7831V43.8298L36.8479 43.8215C44.6409 43.8174 50.9837 37.6924 50.9837 30.1679V20.8282C50.9837 15.1889 46.9872 10.4306 41.5821 9.05985M38.9025 11.6531C38.9108 11.8218 38.915 11.9947 38.915 12.1676V18.0374C38.915 23.1045 34.6434 27.2248 29.3967 27.2248H22.7831V20.8241C22.7831 15.757 27.0504 11.6366 32.3013 11.6366H38.3815C38.5566 11.6366 38.7274 11.6407 38.9025 11.649M19.6992 40.8496H10.3143C9.86835 40.8537 9.44744 40.6849 9.12656 40.3803C8.80984 40.0757 8.63481 39.6682 8.63481 39.236V30.2009H19.695V40.8537L19.6992 40.8496ZM19.6992 20.8241V27.2248H8.63481V13.6536C8.63481 7.76323 13.5982 2.97604 19.695 2.97604H29.3925C33.3557 2.97604 36.7604 5.32642 38.194 8.66057H32.2972C25.3502 8.66057 19.695 14.1187 19.695 20.8241M47.8957 30.1638C47.8957 36.0501 42.9365 40.8414 36.8396 40.8414L22.7747 40.8496V30.2009H29.3883C36.3354 30.2009 41.9905 24.7427 41.9905 18.0374V12.324C45.4494 13.703 47.8957 16.9918 47.8957 20.8241V30.1638Z" fill="#CB9E27"/>
<path d="M66.244 29.1465L61.9766 40.2439H64.1519L65.1479 37.4654H69.432L70.428 40.2439H72.7034L68.5027 29.1465H66.244ZM65.7522 35.7448L67.2733 31.4845L68.8111 35.7448H65.7522Z" fill="#023D52"/>
<path d="M75.9377 29.1475H73.8457V40.2449H75.9377V29.1475Z" fill="#023D52"/>
<path d="M81.9883 40.2398H89.1478V38.4739H84.1428V35.5555H88.4102V33.8349H84.1428V30.9124H89.1478V29.1465H81.9883V40.2398Z" fill="#023D52"/>
<path d="M95.0333 38.6963C94.1831 38.6963 93.5789 38.2229 93.5789 36.9428V33.4399H96.7669V31.8921H93.5789V29.6035H91.5035V31.8921H89.9824V33.4399H91.5035V37.4326C91.5035 39.499 92.6995 40.4169 94.5124 40.4169C95.525 40.4169 96.3752 40.2275 97.1295 39.8818L96.8003 38.3217C96.2127 38.5893 95.6542 38.7004 95.0333 38.7004" fill="#023D52"/>
<path d="M100.379 31.8926H98.2871V40.2403H100.379V31.8926Z" fill="#023D52"/>
<path d="M99.3349 28.168C98.6306 28.168 98.043 28.6578 98.043 29.3823C98.043 30.1067 98.6639 30.5801 99.3349 30.5801C100.052 30.5801 100.627 30.0738 100.627 29.3823C100.627 28.6413 100.022 28.168 99.3349 28.168Z" fill="#023D52"/>
<path d="M107.884 31.67C106.575 31.67 105.479 32.2874 104.662 33.4523V29.1426H102.57V40.24H104.662V35.7738C105.367 34.1809 106.233 33.3905 107.375 33.3905C108.405 33.3905 108.959 34.008 108.959 35.4116V40.24H111.034V35.284C111.034 32.5673 109.692 31.67 107.88 31.67" fill="#023D52"/>
<path d="M119.984 33.1847C119.246 32.1886 118.217 31.6699 116.891 31.6699C114.587 31.6699 112.641 33.2176 112.641 36.0743C112.641 38.931 114.653 40.4293 116.891 40.4293C118.25 40.4293 119.263 39.816 119.984 38.7252V40.2399H122.059V31.8881H119.984V33.1806V33.1847ZM119.984 36.0578C119.592 37.6179 118.596 38.7252 117.204 38.7252C115.812 38.7252 114.833 37.7455 114.833 36.0414C114.833 34.3372 115.862 33.374 117.204 33.374C118.546 33.374 119.558 34.3702 119.984 35.9796V36.0578Z" fill="#023D52"/>
<path d="M131.067 33.1567C130.33 32.177 129.3 31.6748 127.992 31.6748C125.704 31.6748 123.758 33.2225 123.758 36.0792C123.758 38.9359 125.771 40.4342 127.992 40.4342C129.35 40.4342 130.38 39.8209 131.101 38.7301V40.2449H133.147V29.1475H131.072V33.1567H131.067ZM131.101 36.0586C130.709 37.6228 129.709 38.726 128.321 38.726C126.933 38.726 125.95 37.7463 125.95 36.0422C125.95 34.338 126.979 33.3748 128.304 33.3748C129.63 33.3748 130.676 34.3669 131.101 35.9804V36.0586Z" fill="#023D52"/>
<path d="M142.871 29.1475H139.191V40.2449H141.35V36.6143H142.871C145.08 36.6143 147.172 35.3342 147.172 32.8727C147.172 30.4111 145.176 29.1475 142.871 29.1475ZM142.446 34.8937H141.35V30.8681H142.429C144.13 30.8681 144.98 31.5637 144.98 32.9344C144.98 34.1034 144.113 34.8896 142.446 34.8896" fill="#023D52"/>
<path d="M155.472 33.1847C154.734 32.1886 153.705 31.6699 152.384 31.6699C150.079 31.6699 148.133 33.2176 148.133 36.0743C148.133 38.931 150.146 40.4293 152.384 40.4293C153.738 40.4293 154.755 39.816 155.472 38.7252V40.2399H157.547V31.8881H155.472V33.1806V33.1847ZM155.472 36.0578C155.08 37.6179 154.084 38.7252 152.692 38.7252C151.3 38.7252 150.321 37.7455 150.321 36.0414C150.321 34.3372 151.35 33.374 152.692 33.374C154.034 33.374 155.046 34.3702 155.472 35.9796V36.0578Z" fill="#023D52"/>
<path d="M163.257 38.034L160.982 31.8926H158.564L162.161 40.2897L160.64 43.558H162.849L167.933 31.8926H165.628L163.257 38.034Z" fill="#023D52"/>
<path d="M180.506 31.6869C179.018 31.6869 177.989 32.3826 177.189 33.7533C176.764 32.255 175.701 31.6869 174.392 31.6869C173.001 31.6869 171.971 32.2879 171.188 33.4528V31.8886H169.096V40.2364H171.188V35.7867C171.842 34.1937 172.642 33.4034 173.788 33.4034C174.767 33.4034 175.293 34.0497 175.293 35.4533V40.2364H177.368V35.7867C178.022 34.1937 178.806 33.4034 179.935 33.4034C180.914 33.4034 181.489 34.0497 181.489 35.4533V40.2364H183.565V35.3257C183.565 32.6254 182.223 31.6787 180.506 31.6787" fill="#023D52"/>
<path d="M189.624 31.6701C187.057 31.6701 185.178 33.4237 185.178 36.1198C185.178 38.8159 186.828 40.4583 189.837 40.4583C191.325 40.4583 192.533 40.1249 193.483 39.5898L193.125 38.1367C192.112 38.6554 191.229 38.8324 190.166 38.8324C188.499 38.8324 187.566 38.1203 187.353 36.7002H193.846C193.879 36.5273 193.896 36.305 193.896 36.0539C193.896 33.0532 192.016 31.666 189.628 31.666M187.357 35.4365C187.536 33.9999 188.324 33.259 189.599 33.259C190.875 33.259 191.591 33.9835 191.741 35.4365H187.357Z" fill="#023D52"/>
<path d="M200.876 31.6865C199.567 31.6865 198.471 32.2875 197.655 33.4689V31.8923H195.562V40.2401H197.655V35.7575C198.325 34.148 199.176 33.3906 200.367 33.3906C201.397 33.3906 201.955 34.004 201.955 35.4241V40.2401H204.031V35.2841C204.031 32.5674 202.689 31.6865 200.876 31.6865Z" fill="#023D52"/>
<path d="M210.223 38.6963C209.373 38.6963 208.768 38.2229 208.768 36.9428V33.4399H211.956V31.8921H208.768V29.6035H206.693V31.8921H205.172V33.4399H206.693V37.4326C206.693 39.499 207.885 40.4169 209.702 40.4169C210.714 40.4169 211.565 40.2275 212.319 39.8818L211.994 38.3217C211.406 38.5893 210.848 38.7004 210.227 38.7004" fill="#023D52"/>
<path d="M215.145 34.2309C215.145 33.6134 215.816 33.2512 216.762 33.2512C217.708 33.2512 218.579 33.5681 219.346 33.9921L219.721 32.3662C218.921 31.9546 217.791 31.6582 216.666 31.6582C214.408 31.6582 213.066 32.7325 213.066 34.3585C213.066 37.7214 217.925 36.2684 217.925 37.9272C217.925 38.6064 217.271 38.9069 216.225 38.9069C215.178 38.9069 214.049 38.5282 213.312 38.0713L212.953 39.7137C213.657 40.0759 214.849 40.4546 216.158 40.4546C218.383 40.4546 220 39.3638 220 37.7255C220 34.5849 215.145 36.0214 215.145 34.2391" fill="#023D52"/>
<path d="M70.5673 13.394C71.0508 13.394 71.4383 13.003 71.4383 12.5378C71.4383 12.0727 71.0508 11.6816 70.5673 11.6816C70.0506 11.6816 69.6797 12.0727 69.6797 12.5378C69.6797 13.003 70.0506 13.394 70.5673 13.394Z" fill="#023D52"/>
<path d="M73.808 13.316C74.083 14.3574 74.3581 15.4194 74.3581 16.4155C74.3581 17.6463 73.3121 18.239 70.795 18.239H67.9403C65.6024 18.239 64.5356 17.5516 64.5356 16.0574C64.5356 15.3865 64.7148 14.7196 65.0357 13.9087L63.5854 13.4107C63.102 14.4233 62.877 15.5593 62.877 16.5102C62.877 18.9223 64.2022 20.3548 67.7945 20.3548H70.8116C74.6998 20.3548 76.0375 18.7824 76.0375 16.2756C76.0375 15.0942 75.7458 13.847 75.4583 12.8838L73.8121 13.3201L73.808 13.316Z" fill="#023D52"/>
<path d="M68.3564 13.394C68.8565 13.394 69.2274 13.003 69.2274 12.5378C69.2274 12.0727 68.8398 11.6816 68.3564 11.6816C67.873 11.6816 67.4688 12.0727 67.4688 12.5378C67.4688 13.003 67.873 13.394 68.3564 13.394Z" fill="#023D52"/>
<path d="M95.1884 16.5555C95.1884 15.6664 96.026 14.9214 97.2512 14.9214C98.2014 14.9214 98.9765 15.4194 99.4141 15.794L100.318 14.3451C99.9309 13.7359 98.8849 12.8056 97.3346 12.8056C95.03 12.8056 93.6423 14.5509 93.6423 16.3085C93.6423 17.1482 93.9173 17.7863 94.4008 18.239H81.1568C80.1567 18.239 79.4607 17.988 79.4607 16.8066V9.20801H77.7188V17.4611C77.7188 19.4863 79.044 20.3589 81.0735 20.3589H100.931V18.2432H97.5096C96.3344 18.2432 95.1884 17.6957 95.1884 16.5596" fill="#023D52"/>
<path d="M108.994 20.3546H116.062C118.933 20.3546 120.433 19.0456 120.433 15.1846C120.433 12.8342 119.241 10.8584 117.028 10.8584C114.966 10.8584 113.595 12.509 113.595 14.456C113.595 16.0284 114.561 17.1645 116.495 17.1645C117.804 17.1645 118.558 16.6211 118.979 15.9955C118.883 17.9713 117.754 18.2388 116.157 18.2388H109.281V18.2224C109.281 15.7485 108.102 13.7398 105.972 13.7398C103.955 13.7398 102.505 15.4357 102.505 17.5555C102.505 19.0333 103.439 20.2352 105.472 20.2352H107.668C107.185 21.0914 106.022 21.8241 103.893 21.8241C102.943 21.8241 102.184 21.717 101.634 21.6388L101.488 23.5241C101.909 23.6476 102.843 23.804 103.843 23.804C106.877 23.804 108.394 22.2933 108.99 20.3628M116.72 15.3163C115.703 15.3163 115.024 14.9294 115.024 14.2584C115.024 13.6492 115.687 12.8712 116.845 12.8712C118.07 12.8712 118.683 13.8221 118.895 14.5671C118.508 14.987 117.783 15.3163 116.72 15.3163ZM105.701 18.2429C104.622 18.2429 103.943 17.9466 103.943 17.3703C103.943 16.687 104.555 15.8144 105.797 15.8144C107.039 15.8144 107.731 16.9834 107.894 18.2429H105.701Z" fill="#023D52"/>
<path d="M117.033 9.75102C117.583 9.75102 117.971 9.33116 117.971 8.84956C117.971 8.36796 117.583 7.93164 117.033 7.93164C116.45 7.93164 116.066 8.3515 116.066 8.84956C116.066 9.34763 116.454 9.75102 117.033 9.75102Z" fill="#023D52"/>
<path d="M149.941 18.8277C150.329 19.8567 151.296 20.3548 152.7 20.3548C154.701 20.3548 156.234 19.2969 156.234 16.7119V9.20801H154.492V16.8189C154.492 18.0003 153.88 18.2349 152.8 18.2349C151.608 18.2349 151.042 18.0003 151.042 16.6172V9.20801H149.283V16.679C149.283 18.0168 148.704 18.2349 147.524 18.2349H144.649C143.699 18.2349 143.294 17.8768 142.924 16.679C142.311 14.7032 141.232 13.6741 139.602 13.6741C137.489 13.6741 135.989 15.403 135.989 17.4734C135.989 17.5681 135.989 17.6422 136.006 17.7369C135.701 18.095 135.118 18.2349 134.343 18.2349H131.467C130.259 18.2349 129.917 17.7369 129.321 16.539L126.95 11.7271L125.258 12.4763L127.646 17.2553C127.5 17.955 126.646 18.3461 125.371 18.3461C124.095 18.3461 123.078 18.1279 123.128 16.5884L121.678 16.6502C121.549 18.6918 121.97 20.4947 125.146 20.4947C126.921 20.4947 128.034 19.7785 128.467 18.4696C129.046 19.6674 129.771 20.3548 131.367 20.3548H134.268C135.272 20.3466 136.102 19.9761 136.535 19.2969C137.052 19.9967 137.956 20.4165 139.198 20.4165C140.744 20.4165 141.732 19.7003 142.132 18.9512C142.519 19.8855 143.407 20.3548 144.549 20.3548H147.441C148.783 20.3466 149.616 19.7579 149.937 18.8277M139.29 18.3131C138.081 18.3131 137.435 17.9097 137.435 17.3005C137.435 16.4608 138.256 15.7899 139.352 15.7899C140.448 15.7899 141.157 16.4896 141.511 17.5804C141.173 17.955 140.477 18.3131 139.285 18.3131" fill="#023D52"/>
<path d="M165.14 11.727L163.915 13.2829C166.027 14.9953 167.14 16.226 167.14 17.1892C167.14 17.9384 166.398 18.3418 164.865 18.3418C163.477 18.3418 162.543 18.1236 162.589 16.58L161.139 16.6418C161.01 18.6834 161.431 20.4863 164.719 20.4863C167.461 20.4863 168.686 19.2268 168.686 17.0904C168.686 14.9541 167.007 13.1224 165.14 11.7188" fill="#023D52"/>
<path d="M197.408 20.3548H203.172C205.385 20.3466 206.668 19.0417 206.668 16.7737C206.668 15.6993 206.41 14.5015 206.135 13.5836L204.539 14.0199C204.764 14.9872 205.006 16.1521 205.006 16.9136C205.006 17.8151 204.443 18.2349 203.247 18.2349H197.5C196.146 18.2349 195.533 18.0168 195.291 17.3787H196.5L196.662 15.2465H194.92C193.937 15.2465 193.645 15.1519 192.308 14.4521C191.387 13.9705 190.436 13.2996 188.89 13.2996C187.344 13.2996 186.148 14.094 185.761 14.6373L186.436 16.0245C186.873 15.7446 187.598 15.3412 188.678 15.3412C189.87 15.3412 190.824 15.7775 191.741 16.1974C191.999 16.3209 192.241 16.432 192.466 16.5226C189.194 18.1279 187.127 18.2349 185.29 18.2349H173.721C172.721 18.2349 172.029 17.988 172.029 16.8025V9.20801H170.287V17.4611C170.287 19.4863 171.608 20.3589 173.642 20.3589H185.21C188.073 20.3589 190.12 19.8855 193.724 17.387H194.208C194.287 19.2105 194.9 20.3589 197.4 20.3589L197.408 20.3548Z" fill="#023D52"/>
<path d="M204.235 12.6001C204.735 12.6001 205.106 12.209 205.106 11.7439C205.106 11.2787 204.719 10.8877 204.235 10.8877C203.752 10.8877 203.348 11.2746 203.348 11.7439C203.348 12.2131 203.752 12.6001 204.235 12.6001Z" fill="#023D52"/>
<path d="M206.444 12.6001C206.928 12.6001 207.315 12.209 207.315 11.7439C207.315 11.2787 206.928 10.8877 206.444 10.8877C205.928 10.8877 205.557 11.2746 205.557 11.7439C205.557 12.2131 205.928 12.6001 206.444 12.6001Z" fill="#023D52"/>
<path d="M216.266 17.5189C216.266 16.6463 215.766 15.8683 214.991 15.1685C215.895 14.4194 216.087 13.7032 216.087 12.46V9.2041H214.345V13.2216C214.345 13.7361 214.295 14.0448 213.974 14.3906C212.569 13.4232 210.665 12.2131 208.456 10.7477L207.473 12.3983C209.648 13.7361 211.215 14.7199 212.424 15.5431L208.473 18.301V20.355H212.907C215.003 20.355 216.262 19.4371 216.262 17.523M213.115 18.2393H210.519L213.52 16.2017C214.261 16.6668 214.807 17.0908 214.807 17.5889C214.807 18.1158 214.082 18.2434 213.115 18.2434" fill="#023D52"/>
<path d="M219.914 9.20801H218.172V20.3548H219.914V9.20801Z" fill="#023D52"/>
</g>
<defs>
<clipPath id="clip0_1355_11743">
<rect width="220" height="50" fill="white"/>
</clipPath>
</defs>
</svg>
