<svg version="1.2" xmlns="http://www.w3.org/2000/svg" viewBox="0 0 1528 475" width="1528" height="475">
	<title>Bahri logo 2012-svg</title>
	<style>
		.s0 { fill: #21476c } 
		.s1 { fill: #a8a9ad } 
	</style>
	<g id="#21476cff">
		<path id="Layer" class="s0" d="m240 0h102.7c0.5 1.9 0.9 3.9 0.9 5.9q0 144.1 0 288.1c-0.1 4.4 1 9.6-2.6 12.9c-32.8 32.9-65.7 65.7-98.5 98.6q-34.5 35-69.4 69.5h-2.7c-54.6-54.2-108.8-108.8-163.3-163.1c-2.6-2.5-5.2-5.1-7.1-8.2v-148.2c2.3-0.5 4.6-0.9 7-0.9c31 0.1 62.1 0 93.1 0c1.5 0 3 0.1 4.3 0.8c0.6 1.4 0.6 3 0.6 4.5c0 32.1 0 64.2 0 96.2c-0.1 3.2 1.5 6 3.7 8.1c18.5 18.5 37.1 37 55.6 55.6c2 2.1 4.6 3.9 7.7 3.7c4.1 0.1 6.7-3.5 9.4-6.1c17.1-17.2 34.3-34.4 51.5-51.5c2.7-2.6 5.8-5.7 5.3-9.8c-0.1-84.9 0.1-169.7-0.1-254.5c0.5-0.4 1.4-1.2 1.9-1.6z" />
		<path id="Layer" fill-rule="evenodd" class="s0" d="m526.2 0h118.6c21.9 0.9 45 4.1 63.4 16.8c13.6 9.2 22.5 24.2 25.5 40.2c3.5 19.3 2.9 40.4-7 57.7c-7.9 14-21.7 23.4-36 30c14.6 4.1 28.6 11.5 38.5 23.2c11.8 13.3 16.5 31.5 16.6 49c0.1 18.5-2.9 37.8-13.5 53.4c-8.8 13.3-23 22.1-38 26.9c-21.1 6.7-43.4 7.4-65.3 7.2c-32.7 0-65.3-0.1-98 0c-2.2-0.1-4.5 0-6.6-1c-2.6-1.4-2.9-4.7-3-7.4c-0.1-7.3 0.1-14.6-0.1-22c0.1-3.2-0.2-6.6 1-9.6c1.1-2.5 4.2-2.9 6.6-3c8.1-0.1 16.3 0 24.5 0q0-109.3 0-218.6c-7.9 0-15.7 0.1-23.5 0c-2.5-0.1-5.7-0.1-7.3-2.4c-1.6-3.2-1.1-6.9-1.3-10.4c0.2-7.8-0.2-15.7 0.2-23.6c0-2.9 1.6-5.8 4.7-6.4zm87.4 46.8c0 26.2 0 52.4 0 78.6c13.3-0.2 27.1 1.1 39.8-3.7c8.3-3 15.4-9.5 18.5-17.8c3.7-9.6 4.3-20.4 2.3-30.5c-1.8-9.4-8.1-17.8-16.9-21.7c-13.6-6.6-29.1-4.6-43.7-4.9zm0 125.8c0 28.3 0 56.5 0 84.8c16-0.3 32.4 1.2 47.8-4c8.8-2.8 16.7-9.2 20.3-17.8c4.3-10.2 4.4-21.7 2.8-32.4c-1.6-10.8-8.4-20.9-18.7-25.2c-16.4-7.2-34.7-5-52.2-5.4z" />
		<path id="Layer" class="s0" d="m979.3 0h81c1.7 1.6 2.5 3.7 2.3 6c0 32 0.1 64 0 96c5.6-4.5 11.2-9.1 17.5-12.9c13.4-8.2 29.2-12.4 44.9-11.9c14.3-0.2 29.7 3.4 40.1 13.7c10.6 10.5 14.6 25.7 16 40.1c1.3 12.3 0.5 24.7 0.7 37q0 47.3 0 94.6c7.8 0.1 15.5-0.1 23.3 0.1c2.2 0 5.2 0.7 5.4 3.4c0.4 6.6 0 13.3 0.1 19.9c-0.1 5.9 0.6 12-0.8 17.8c-3.6 0.5-7.2 0.6-10.8 0.6c-23-0.1-46 0.1-69.1-0.1c-3.1 0.4-5.1-2.3-4.7-5.2c-0.1-47 0-94 0-141.1c-0.4-9-1.1-18.9-6.9-26.3c-5.6-7.2-15.8-8.7-24.3-7c-12.2 2-22.6 9.6-31.4 17.9q0 60 0 120c7.5 0.1 15-0.1 22.5 0.1c2 0.2 5.1 0 5.8 2.5c1 5.2 0.3 10.5 0.5 15.8c-0.3 7.5 0.6 15.2-0.8 22.6c-5.1 1.1-10.4 0.8-15.6 0.8c-30.7 0-61.4 0-92.1 0c-1.9-0.1-5-0.1-5.5-2.5c-0.9-5.6-0.2-11.3-0.4-16.9c0.2-6.3-0.4-12.7 0.3-19c0.1-2.9 3.4-3.2 5.7-3.3c7.7-0.2 15.3 0 23-0.1q0-110.5 0-221c-6.4 0-12.7 0-19.1 0.1c-2.5-0.1-5.2 0.1-7.5-1c-1.2-1.6-1-3.8-1.1-5.7q0.1-14 0-28.1c0-2.3 0.4-4.6 1-6.9z" />
		<path id="Layer" class="s0" d="m1439.3 18.4c8.5-0.9 17.2-0.1 25.7-0.4c8.4 0.1 16.7-0.2 25.1 0.2c2.9-0.1 3.7 3.4 3.5 5.7c-0.1 10.7 0.2 21.3-0.1 31.9c-0.1 2.8-3 4-5.4 3.8c-15.1 0-30.1 0-45.2 0c-1.9-0.1-4.4-0.1-5.4-2.1c-0.7-2.4-0.5-5-0.5-7.5c0.1-8.7 0-17.4 0-26.1c0.1-2 0-4.7 2.3-5.5z" />
		<path id="Layer" fill-rule="evenodd" class="s0" d="m845.2 77.3c19.7-0.6 40.6 0.2 58.1 10.4c11.7 6.6 20 18.4 23.7 31.2c4.9 15.6 3.7 32 3.8 48.1q0 31 0 62c0.1 11.3 1.4 22.7 4.4 33.6c7.3 0.3 14.6-0.4 21.9 0.4c3 0.2 3.6 3.6 3.5 6c0 10.3 0.1 20.6-0.1 30.8c0.2 2.6-1.9 4.8-4.5 4.5c-19.1 0.1-38.1 0-57.1 0.1c-3.3 0.1-6.7-1-8.7-3.7c-3.2-4.4-3.7-9.9-4.9-15.1c-10.5 11.5-23.7 21.1-39.2 24.5c-19.2 4-40.6 2-57.3-8.9c-13.3-8.6-22-23.1-25.3-38.4c-3-14.4-2.9-29.6 1.3-43.7c4.1-13.9 13.4-26 25.6-33.7c16.2-10.3 35.6-14.4 54.5-16.1c10.7-1.1 21.5-1.2 32.3-1.1c-0.4-10.6 1.3-21.7-2.3-31.9c-2-5.9-7-10.5-12.9-12.3c-12.4-3.7-25.6-2.1-37.9 0.8c-9.9 2.4-19.3 6.2-28.8 9.5c-2.2 0.5-4.8 1.7-6.7 0c-1.6-1.2-2.1-3.2-2.7-5c-2.9-8.8-5.8-17.7-8.8-26.6c-0.9-2.6-1.8-5.9 0.5-8c4.2-4.3 10.1-6.3 15.6-8.3c16.8-5.5 34.4-8 52-9.1zm9.2 128.4c-10.2 1.3-20.9 3.9-29 10.7c-13.8 11.6-13.8 35.6 0 47.2c7.9 6.7 19.3 8.3 29.1 5.1c8.9-2.6 16.1-8.7 22.7-15.1c0-16.2 0-32.5 0-48.8c-7.6 0-15.2-0.1-22.8 0.9z" />
		<path id="Layer" class="s0" d="m1335.7 82.7c11.5-5.9 25.1-7 37.6-4c3.8 1.1 7.8 2.4 10.7 5.3c2.2 2.3 1.3 5.7 0.4 8.4q-6.8 18.3-13.5 36.7c-0.7 2-2.1 5-4.7 4.2c-5.8-1.6-11.2-4.3-17.2-4.6c-6.3-0.7-12.3 1.5-17.5 4.8c-7.1 4.4-13.3 10.2-18.9 16.4c0 37.6 0 75.2 0 112.7c7.8 0.1 15.6 0 23.4 0c2 0.2 4.6 0 6 1.7c1.2 2.4 0.7 5.2 0.8 7.7c-0.1 9.6 0.3 19.2-0.1 28.8c0 2.9-3.3 3.8-5.7 3.6c-35-0.1-70 0-105-0.1c-2.6 0.3-5.1-1.5-4.8-4.3c0-11.3-0.2-22.6 0.1-33.9c0.2-2.9 3.4-3.4 5.7-3.4c7.7-0.1 15.3 0 23-0.1q0-44.8 0-89.6c0.2-15.6 0-31.5-4.5-46.6c-7.2-0.1-14.4 0-21.7-0.1c-2.3 0.1-5.4-0.5-5.6-3.4c-0.5-6.6 0-13.3-0.2-20c0.2-5.2-0.5-10.5 0.4-15.7c0.6-2.5 3.5-2.4 5.5-2.6c18 0 36.1 0.1 54.1 0c4.2-0.2 8.9-0.1 11.8 3.3c5.6 6.8 6.5 15.8 8.7 23.9c8.8-11.2 18.2-22.6 31.2-29.1z" />
		<path id="Layer" class="s0" d="m1402.1 88.9c-0.5-3.4 3.2-4.5 5.9-4.3c17.6 0 35.3 0 53 0c9.7 0.2 19.4-0.3 29.1 0.3c3.1 0.1 3.6 3.6 3.5 6c0 57.3 0 114.5 0 171.7c7.8 0 15.6 0.1 23.4 0c3.7-0.1 7.7-0.2 11 2v36.9c-0.9 2.5-3.6 3-6 2.9c-34-0.1-68 0-102 0c-5.6-0.1-11.2 0.3-16.8-0.6c-1-4.2-0.9-8.6-0.8-12.9c0.2-8.2-0.3-16.5 0.1-24.8c0.2-3.2 3.9-3.4 6.3-3.4c9.4-0.1 18.8 0 28.2-0.1q0-68.1 0-136.2c-9.7-0.1-19.4 0-29.1 0c-2.3-0.1-5.8-0.5-5.7-3.5c-0.4-11.3-0.2-22.7-0.1-34z" />
	</g>
	<g id="#a8a9adff">
		<path id="Layer" class="s1" d="m115 78.7c2.6-2 6-1.4 9-1.5c33.7 0.1 67.4 0 101.1 0.1c2-0.2 3.5 1.6 3.2 3.6c0 57.3 0 114.7 0 172.1c0.1 2.5-1 4.8-2.8 6.4c-17.7 17.4-34.7 35.4-52.6 52.6c-0.6 0-1.9 0-2.6-0.1c-17.4-17.3-34.7-34.7-52.2-52.1c-1.7-1.6-3.2-3.9-3.1-6.4c0-58.3 0.1-116.5 0-174.8z" />
	</g>
</svg>