<?xml version="1.0" encoding="UTF-8"?>
<svg id="svg866" width="216.55791" height="146.60451" version="1.1" viewBox="0 0 216.55791 146.60451" xmlns="http://www.w3.org/2000/svg">
 <path id="path858" d="m87.927 41.9729c-5.811-5.5567-10.8578-11.9043-14.9751-18.8671 17.3038 11.2473 34.742 18.7331 52.1782 23.3898-11.2303-0.0918-26.5938-0.9581-37.2031-4.5227zm128.6309-18.9317c-3.3906 7.3256-7.3976 14.7807-12.3248 20.3074-0.9468 1.0621-1.9176 2.1036-2.9103 3.1226-17.4206 17.8815-41.7643 28.9868-68.7011 28.9868-17.8494 0-34.5557-4.8818-48.8681-13.3747 31.4081 2.2422 64.3816-7.7884 90.9711-26.4126-0.8728 6.6194-4.5966 13.005-10.6877 19.125 19.4335-7.95 32.8663-16.7587 52.5209-31.7545zm-120.2213 36.1471c-9.1471-4.9462-17.3157-11.4681-24.1475-19.2005 21.9642 11.365 54.8648 10.1668 68.7605 9.4295-9.2313 4.0932-27.9164 8.6425-44.613 9.771z" fill="#ef3f32" fill-rule="evenodd"/>
 <g fill="#007cc2" fill-rule="evenodd">
  <path id="path860" d="m162.8898 0c15.1055 0 27.3515 12.246 27.3515 27.3515 0 4.3543-1.0193 8.4697-2.8295 12.1241-3.6128 2.4616-7.3727 4.7152-13.0153 7.0234 3.2788-4.714 4.6114-11.7555 4.4532-18.047-9.9085 8.1966-21.5073 14.8322-33.7201 19.6988-5.8694-5.0168-9.5913-12.4728-9.5913-20.7993 0-15.1055 12.246-27.3515 27.3515-27.3515z"/>
  <path id="path862" d="m14.9927 141.5523c0 0.868-0.1862 1.6081-0.5544 2.2201s-0.8663 1.1121-1.4944 1.4959c-0.6325 0.3801-1.3646 0.6602-2.1963 0.8362-0.836 0.176-1.7156 0.2639-2.6465 0.2639h-7.715v-17.0402h6.9395c1.0437 0 1.9709 0.0802 2.7853 0.2401 0.8187 0.1602 1.5075 0.4079 2.0747 0.7441 0.5678 0.3359 1.0009 0.7639 1.2954 1.2838 0.2988 0.5202 0.4462 1.1401 0.4462 1.8561 0 0.4799-0.0737 0.9281-0.2166 1.3482-0.1428 0.4238-0.3639 0.8039-0.6539 1.1438-0.2906 0.3401-0.6585 0.6321-1.0962 0.8801-0.4419 0.2441-0.953 0.432-1.5378 0.5559 0.7365 0.076 1.3864 0.2361 1.9537 0.468 0.5675 0.2361 1.044 0.5321 1.4337 0.896 0.3901 0.364 0.6846 0.7841 0.8839 1.2561 0.1992 0.4719 0.2987 0.9878 0.2987 1.5519zm-4.0243-7.7479c0-0.8521-0.3118-1.48-0.94-1.8842-0.6236-0.4079-1.5678-0.612-2.8287-0.612h-3.8724v5.216h3.8985c0.6585 0 1.226-0.0637 1.6982-0.1919 0.4765-0.1278 0.8663-0.3121 1.1696-0.5519 0.303-0.2401 0.5284-0.5241 0.667-0.856 0.1386-0.332 0.2078-0.7042 0.2078-1.12zm1.0789 7.5359c0-0.5159-0.1129-0.9558-0.3425-1.3241-0.2296-0.3679-0.5414-0.6678-0.9399-0.9-0.3983-0.2358-0.8663-0.4079-1.412-0.5159-0.5459-0.1119-1.1438-0.1638-1.7847-0.1638h-4.2409v5.9519h4.4184c0.5936 0 1.1523-0.0519 1.6764-0.1599 0.5241-0.104 0.9791-0.2761 1.3688-0.5162 0.3901-0.2358 0.6976-0.5479 0.9185-0.936 0.225-0.388 0.3379-0.864 0.3379-1.436zm14.7067-12.0121 6.9307 17.0402h-2.9585l-1.876-4.792h-7.5892l-1.9145 4.792h-2.9846l6.9655-17.0402zm-1.6983 2.052-3.1493 8.1442h6.2595zm11.0937 14.9882v-17.0402h2.9412v7.0801h10.0931v-7.0801h2.8678v17.0402h-2.8678v-7.7119h-10.0931v7.7119zm31.4053-12.06c0-0.976-0.3464-1.7201-1.0397-2.232-0.6928-0.5119-1.6631-0.7682-2.9064-0.7682h-3.8469v6.0962h3.9507c0.6672 0 1.2432-0.0799 1.7285-0.2401 0.4893-0.1599 0.8881-0.3798 1.1999-0.6559 0.3164-0.2801 0.546-0.6041 0.6928-0.98 0.1474-0.3761 0.2211-0.7801 0.2211-1.22zm2.9716-0.0241c0 0.5479-0.0865 1.08-0.2597 1.588-0.1735 0.5122-0.4422 0.9842-0.8016 1.4079-0.3594 0.4241-0.8144 0.7963-1.3643 1.1081-0.5502 0.3121-1.2002 0.544-1.9537 0.6919l5.1548 7.2882h-3.3267l-4.657-7.0081h-3.5564v7.0081h-2.9409v-17.0402h7.0432c1.0831 0 2.0361 0.1162 2.8678 0.3481 0.8272 0.2279 1.5248 0.5562 2.088 0.9839 0.563 0.4241 0.9876 0.9442 1.2733 1.5562 0.2903 0.616 0.4332 1.304 0.4332 2.0679zm11.9775-4.9561 6.931 17.0402h-2.9585l-1.876-4.792h-7.5892l-1.9145 4.792h-2.9849l6.9659-17.0402zm-1.698 2.052-3.1493 8.1442h6.2595zm14.0349 14.9882h-2.9412v-17.0402h2.9412zm17.8818 0-10.5049-14.0162c0.0476 1.1242 0.0737 2.156 0.0737 3.0963v10.9199h-2.6249v-17.0402h3.4393l10.6475 14.1123c-0.0694-1.2682-0.104-2.376-0.104-3.3321v-10.7802h2.6166v17.0402zm28.8581-11.8721c0 0.72-0.134 1.404-0.394 2.052-0.2644 0.648-0.6585 1.2161-1.1911 1.7039-0.5329 0.4882-1.2087 0.8762-2.0188 1.1603-0.8144 0.288-1.7674 0.428-2.8678 0.428h-4.2925v6.5279h-2.9413v-17.0402h7.0694c1.1219 0 2.101 0.1242 2.9281 0.3762 0.832 0.248 1.5205 0.6001 2.0707 1.0479 0.55 0.4479 0.9618 0.9922 1.2303 1.628 0.273 0.64 0.407 1.3442 0.407 2.116zm-2.9715 0.0241c0-1.0162-0.3337-1.8039-1.0006-2.368-0.6716-0.5602-1.6765-0.8442-3.0192-0.8442h-3.7729v6.5761h3.8984c0.6758 0 1.2606-0.0839 1.7502-0.252 0.4895-0.1678 0.8966-0.4 1.2129-0.6959 0.3161-0.2999 0.5499-0.652 0.7058-1.0641 0.1517-0.4079 0.2254-0.8601 0.2254-1.3519zm23.76 3.248c0 1.3359-0.2078 2.5441-0.6151 3.632-0.4113 1.084-1.0046 2.016-1.7759 2.7879-0.7753 0.7721-1.7241 1.368-2.846 1.7881-1.1177 0.4161-2.3868 0.6281-3.799 0.6281-1.4987 0-2.8114-0.2202-3.9419-0.6562-1.1307-0.4399-2.0707-1.0519-2.8244-1.836-0.7538-0.7838-1.3167-1.7158-1.6937-2.7958-0.3767-1.076-0.563-2.2601-0.563-3.5481 0-1.3281 0.199-2.528 0.5976-3.6 0.3943-1.0681 0.979-1.98 1.7501-2.7281 0.771-0.752 1.7152-1.332 2.8417-1.7359 1.1262-0.4079 2.4129-0.6081 3.8597-0.6081s2.7289 0.2041 3.8508 0.612c1.122 0.4119 2.0619 0.9961 2.8242 1.7482 0.7583 0.7517 1.3388 1.6639 1.7373 2.7317 0.3983 1.0641 0.5976 2.2561 0.5976 3.5802zm-2.9716 0c0-0.9879-0.1298-1.88-0.394-2.6842-0.2599-0.8078-0.6457-1.4918-1.1526-2.0559-0.5065-0.5681-1.1389-1.008-1.8927-1.3198-0.754-0.3121-1.6202-0.468-2.599-0.468-1.018 0-1.9018 0.1559-2.6598 0.468-0.7583 0.3118-1.3907 0.7517-1.8975 1.3198-0.5068 0.5641-0.8881 1.2481-1.1435 2.0559-0.2514 0.8042-0.3813 1.6963-0.3813 2.6842 0 0.9759 0.1344 1.872 0.3943 2.692 0.2642 0.8201 0.6497 1.5279 1.1566 2.124 0.5068 0.5919 1.1392 1.052 1.8887 1.3799 0.7537 0.328 1.6245 0.4921 2.6164 0.4921 1.0567 0 1.9667-0.1681 2.7334-0.504 0.7665-0.3319 1.3947-0.7999 1.893-1.3921 0.4938-0.5958 0.8575-1.2999 1.0916-2.116 0.2296-0.8158 0.3464-1.7079 0.3464-2.6759zm20.9271 3.8401c0 0.7279-0.1474 1.4-0.4374 2.012-0.2906 0.612-0.7455 1.1398-1.3604 1.58-0.6108 0.4439-1.3906 0.7878-2.3349 1.0318-0.9399 0.2481-2.0619 0.3722-3.357 0.3722-2.2743 0-4.0374-0.3801-5.2849-1.1321-1.2476-0.756-2.0492-1.8479-2.4044-3.276l2.8157-0.5159c0.1128 0.4237 0.2817 0.8078 0.5113 1.1559 0.2251 0.3481 0.5372 0.648 0.9315 0.9 0.3943 0.256 0.8793 0.4519 1.4511 0.5879 0.5762 0.1361 1.2648 0.2041 2.0707 0.2041 0.6843 0 1.3079-0.0561 1.8669-0.1641 0.5544-0.108 1.0352-0.2758 1.434-0.504 0.394-0.2279 0.7016-0.5159 0.9182-0.868 0.2165-0.352 0.3251-0.7718 0.3251-1.2639 0-0.548-0.1517-0.9922-0.4507-1.336-0.3033-0.3441-0.6976-0.6282-1.1957-0.8521-0.4938-0.22-1.057-0.4039-1.6852-0.5479-0.6321-0.144-1.2736-0.292-1.923-0.44-0.4983-0.108-1.0009-0.2239-1.499-0.3401-0.4983-0.116-0.979-0.26-1.4383-0.4281-0.4634-0.1678-0.8923-0.3639-1.2909-0.5918-0.394-0.2279-0.7406-0.504-1.0306-0.832-0.2948-0.328-0.5244-0.7121-0.6934-1.148-0.1686-0.436-0.2557-0.9479-0.2557-1.5361 0-0.8119 0.1735-1.5081 0.5202-2.0841 0.3467-0.5799 0.8317-1.0559 1.4468-1.4238 0.6194-0.3722 1.347-0.644 2.1917-0.8161 0.8405-0.1721 1.7544-0.256 2.7335-0.256 1.1262 0 2.088 0.0839 2.8806 0.252 0.7971 0.1681 1.4643 0.4201 2.0058 0.756 0.5414 0.3359 0.9788 0.7521 1.3079 1.2521 0.3293 0.5 0.5893 1.084 0.784 1.7478l-2.8545 0.396c-0.0995-0.4039-0.2557-0.7599-0.4677-1.0598-0.2123-0.2999-0.4853-0.5519-0.8189-0.756-0.3337-0.2041-0.7407-0.3561-1.2172-0.4561-0.4811-0.1041-1.0398-0.152-1.6849-0.152-0.7495 0-1.3819 0.0641-1.8887 0.1919-0.5069 0.1282-0.9182 0.3082-1.2257 0.5321-0.3079 0.2279-0.5287 0.4921-0.6585 0.792-0.1304 0.2999-0.1993 0.6239-0.1993 0.968 0 0.476 0.1256 0.868 0.3679 1.1761 0.2469 0.3079 0.5806 0.5681 1.0052 0.7759 0.4246 0.2041 0.9181 0.3801 1.4856 0.5241 0.563 0.148 1.1739 0.292 1.8238 0.4399 0.5415 0.1199 1.0874 0.2401 1.6373 0.364 0.5502 0.1242 1.0744 0.2721 1.5767 0.4399 0.4983 0.1681 0.9663 0.3683 1.3994 0.6041 0.4374 0.2322 0.8144 0.5241 1.139 0.868 0.3209 0.3441 0.572 0.748 0.754 1.2121 0.1817 0.464 0.273 1.0119 0.273 1.6441zm17.1581-12.2803v2.1682h-6.3201v14.872h-2.9197v-14.872h-6.1294v-2.1682z"/>
  <path id="path864" d="m29.0466 115.3815h-2.3454c-0.4989 0-1.0459-0.0763-1.648-0.2231-0.6015-0.1525-1.1486-0.3697-1.6271-0.6511 0 2.4641-1.0395 4.4356-3.1249 5.9142-2.0787 1.4726-4.9232 2.2118-8.5266 2.2118-1.6549 0-3.2137-0.1641-4.6772-0.487-1.4632-0.3285-2.7077-0.8331-3.7332-1.5196-1.0528-0.7098-1.8805-1.6251-2.4755-2.7459-0.5945-1.1206-0.8887-2.4877-0.8887-4.1012 0-1.1441 0.0822-2.2354 0.2393-3.2737 0.1573-1.0386 0.2531-1.7133 0.2939-2.0242h3.6516v0.2758c-0.1437 0.4104-0.3285 1.144-0.5403 2.1999-0.212 1.0562-0.3214 2.0067-0.3214 2.8517 0 1.76 0.7727 3.1272 2.3247 4.1128 1.5454 0.9799 3.5625 1.4729 6.0448 1.4729 2.4205 0 4.4306-0.5046 6.0376-1.5081 1.6066-1.0032 2.4137-2.3644 2.4137-4.0776 0-1.3025-0.0959-2.4174-0.2804-3.3503-0.1848-0.9269-0.2939-1.4845-0.335-1.6662v-0.3109h3.9795c0 1.0442 0.4037 1.9125 1.2237 2.6109 0.8141 0.6982 1.7711 1.0503 2.8721 1.0503h1.4428zm-15.7952-9.7866h-2.954v-2.5345h2.954zm24.6158 2.0006c0 2.441-0.6769 4.3478-2.0239 5.7266-1.3471 1.3728-3.2069 2.0594-5.5659 2.0594h-2.6257v-3.2386h2.7281c1.3609 0 2.3935-0.4167 3.1045-1.2558 0.7041-0.8331 1.0596-2.0007 1.0596-3.5027v-4.324h3.3233zm-6.1951 13.1018h-2.954v-2.5348h2.954zm5.3745 0h-2.954v-2.5348h2.954zm20.5886-5.3158h-1.518c-0.417 0-0.8753-0.0528-1.3813-0.1644-0.506-0.1055-0.9573-0.2523-1.3606-0.44-0.4924 1.643-1.2651 3.0042-2.3111 4.0836-1.0531 1.0797-2.2703 1.9009-3.6581 2.4701-1.395 0.5165-2.5782 0.8626-3.549 1.0386-0.9777 0.1761-2.0855 0.2639-3.3299 0.2639v-3.2385c0.8686 0 1.7983-0.0706 2.7899-0.2172 0.9845-0.1409 2.0511-0.4402 3.1861-0.8977 1.3881-0.6044 2.3661-1.3728 2.9336-2.3057 0.5675-0.9272 0.8546-2.0186 0.8546-3.2624 0-0.6746-0.1094-1.3436-0.3214-2.0123-0.2118-0.669-0.4513-1.2558-0.718-1.7544-0.2665-0.5045-0.5332-0.9448-0.8-1.332-0.2667-0.3812-0.4923-0.6806-0.663-0.8974v-0.2055h3.8563c0.0822 0.1233 0.2803 0.4986 0.6018 1.1148 0.3279 0.6219 0.6086 1.1733 0.8478 1.6662 0.506 1.0092 1.0803 1.7368 1.7232 2.1827 0.6355 0.4459 1.3674 0.669 2.1949 0.669h0.6222zm15.8357-3.7256c-2.933 1.1089-5.675 2.0064-8.2117 2.6929-2.5438 0.6866-4.5198 1.0327-5.9354 1.0327h-3.0836v-3.2386h3.1728c1.8599 0 4.4649-0.487 7.8155-1.4669 3.3434-0.98 6.2084-2.0007 8.5949-3.051-1.1693-0.6925-3.0152-1.3847-5.5315-2.0653-2.5234-0.6806-5.1217-1.021-7.8021-1.021h-2.3519v-3.1683h2.5432c2.4619 0 5.1489 0.3991 8.0754 1.203 2.9267 0.8036 5.7574 1.9361 8.4994 3.403l4.0206-1.7544v3.2386c-0.9093 0.4578-1.9352 0.9505-3.0838 1.4669-1.1489 0.5222-2.3454 1.0327-3.6034 1.5254 0.3076 0.4989 0.752 0.9037 1.3402 1.2206 0.5879 0.3109 1.4151 0.4694 2.4818 0.4694h5.1216v3.2386h-5.0462c-1.8737 0-3.4121-0.2994-4.6222-0.9037-1.2104-0.5984-2.0035-1.5429-2.3936-2.8219zm26.4691 3.7256h-2.3315c-0.8277 0-1.7371-0.1877-2.7216-0.5692-0.9915-0.3813-1.7095-0.8978-2.1472-1.5548-0.4649 0.6806-1.169 1.2027-2.1059 1.5723-0.9365 0.3697-1.853 0.5517-2.7351 0.5517h-3.7537v-3.2386h2.8443c1.2033 0 2.1745-0.3521 2.9265-1.0622 0.7452-0.7098 1.1214-1.7189 1.1214-3.0217v-2.0769h3.3642v2.0769c0 1.2322 0.3758 2.2238 1.1282 2.969 0.7523 0.7452 1.7435 1.1149 2.9675 1.1149h1.4429zm-6.4412 5.4918h-2.954v-2.5347h2.954zm15.3028-13.2834c0 2.4877-0.6769 4.4121-2.0307 5.7614-1.3606 1.3555-3.2139 2.0302-5.559 2.0302h-2.6666v-3.2386h2.7624c0.7931 0 1.4632-0.1409 2.0236-0.4227 0.561-0.2814 0.9919-0.6454 1.2858-1.0913 0.294-0.4107 0.5128-0.8918 0.6495-1.4431 0.1437-0.5516 0.212-1.15 0.212-1.8074v-18.7515h3.323zm9.2654 7.7916h-3.3234v-26.7546h3.3234zm38.5095 0h-1.101c-1.3331 0-2.5024-0.2172-3.5076-0.6455s-1.8119-1.0326-2.4273-1.813c-0.8546 0.8155-1.7847 1.4258-2.783 1.8425-0.9913 0.4107-2.0376 0.616-3.1386 0.616h-5.3813-2.6668v-3.2386h7.8772c0.8002 0 1.5112-0.0941 2.1266-0.2758 0.6154-0.182 1.0941-0.4343 1.4425-0.7512 0.3215-0.311 0.5471-0.6276 0.6704-0.9621 0.1298-0.3285 0.1913-0.6806 0.1913-1.0446 0-0.117-0.0272-0.299-0.089-0.5513-0.0615-0.2523-0.1366-0.534-0.2321-0.839l-3.1317-9.059h3.9109l2.7145 8.1964c0.212 0.6514 0.4581 1.3555 0.7387 2.1123 0.2803 0.7569 0.54 1.3201 0.7795 1.6957 0.3076 0.4575 0.6834 0.8212 1.1214 1.0854 0.4442 0.2639 1.0117 0.3932 1.7025 0.3932h1.1829zm8.8137-7.786c0 2.441-0.6769 4.3478-2.0239 5.7266-1.3467 1.3728-3.2068 2.0594-5.5658 2.0594h-2.6255v-3.2386h2.7281c1.3606 0 2.3933-0.4167 3.1042-1.2558 0.7041-0.8331 1.0596-2.0007 1.0596-3.5027v-4.324h3.3233zm-6.1948 13.1018h-2.954v-2.5348h2.954zm5.3742 0h-2.954v-2.5348h2.954zm20.5886-5.3158h-1.5179c-0.417 0-0.8751-0.0528-1.3814-0.1644-0.5059-0.1055-0.9572-0.2523-1.3606-0.44-0.4921 1.643-1.2648 3.0042-2.3111 4.0836-1.0528 1.0797-2.2702 1.9009-3.6581 2.4701-1.3949 0.5165-2.5778 0.8626-3.549 1.0386-0.9776 0.1761-2.0854 0.2639-3.3298 0.2639v-3.2385c0.8685 0 1.7986-0.0706 2.7898-0.2172 0.9845-0.1409 2.0512-0.4402 3.1862-0.8977 1.3881-0.6044 2.3661-1.3728 2.9336-2.3057 0.5674-0.9272 0.8546-2.0186 0.8546-3.2624 0-0.6746-0.1094-1.3436-0.3215-2.0123-0.2117-0.669-0.4512-1.2558-0.7177-1.7544-0.2667-0.5045-0.5332-0.9448-0.8002-1.332-0.2665-0.3812-0.4921-0.6806-0.663-0.8974v-0.2055h3.8562c0.0822 0.1233 0.2804 0.4986 0.6018 1.1148 0.328 0.6219 0.6086 1.1733 0.8481 1.6662 0.5057 1.0092 1.0803 1.7368 1.7229 2.1827 0.6359 0.4459 1.3675 0.669 2.1949 0.669h0.6222zm8.8206-7.786c0 2.441-0.6769 4.3478-2.024 5.7266-1.3467 1.3728-3.2068 2.0594-5.5658 2.0594h-2.6254v-3.2386h2.7277c1.361 0 2.3936-0.4167 3.1046-1.2558 0.7041-0.8331 1.0595-2.0007 1.0595-3.5027v-4.324h3.3234zm-2.8307 13.2778h-2.954v-2.5347h2.954z"/>
 </g>
</svg>
