<svg id="Logo" xmlns="http://www.w3.org/2000/svg" width="60.032" height="60.035" viewBox="0 0 60.032 60.035">
  <path id="Path_60115" data-name="Path 60115" d="M8.391,0H1.041a1.041,1.041,0,1,0,0,2.081H6.258L.171,12.921A.551.551,0,0,0,.133,13,1.4,1.4,0,0,0,0,13.525v.105a.813.813,0,0,0,.862.819H8.138a1.072,1.072,0,0,0,0-2.144H2.96L9.053,1.5A1.275,1.275,0,0,0,9.209.923v-.1A.819.819,0,0,0,8.391,0" transform="translate(0 42.27)" fill="#ffc20e"/>
  <path id="Path_60116" data-name="Path 60116" d="M8,12.172H4.239a8.317,8.317,0,0,1-1.495-.116,4.332,4.332,0,0,1-1.309-.473,2.539,2.539,0,0,1-1.1-1.206A4.391,4.391,0,0,1,0,8.566V8.1A3.071,3.071,0,0,1,1.3,5.235a7.82,7.82,0,0,1,3.472-.8l1.647-.046V3.879A1.8,1.8,0,0,0,6,2.466a2.619,2.619,0,0,0-1.592-.384,10.235,10.235,0,0,0-1.515.109A1.049,1.049,0,0,1,2.73,2.2a1.036,1.036,0,0,1-1.025-.918A1.04,1.04,0,0,1,2.584.14,11.935,11.935,0,0,1,4.451,0,4.921,4.921,0,0,1,7.423.817a3.581,3.581,0,0,1,1.2,3.062V11.3a.9.9,0,0,1-.584.852L8,12.172ZM6.417,6.435c-.492.008-1.013.028-1.548.058a4.971,4.971,0,0,0-2.27.452c-.257.167-.392.582-.392,1.2v.422c0,.606.133,1.015.385,1.182a3.075,3.075,0,0,0,1.647.344H6.417Z" transform="translate(10.392 44.548)" fill="#ffc20e"/>
  <path id="Path_60117" data-name="Path 60117" d="M3.139,0A1.116,1.116,0,0,0,2.025,1.111V9.761c0,1.484-.554,1.474-.886,1.482a1.079,1.079,0,0,0-.809.291A1.039,1.039,0,0,0,0,12.3,1.055,1.055,0,0,0,.9,13.34a1.931,1.931,0,0,0,.344.028c1.125,0,3.012-.472,3.012-3.629V1.111A1.117,1.117,0,0,0,3.139,0" transform="translate(19.44 46.666)" fill="#ffc20e"/>
  <path id="Path_60118" data-name="Path 60118" d="M1.119,0A1.118,1.118,0,0,0,0,1.111V8.937a1.115,1.115,0,0,0,2.23,0V1.111A1.116,1.116,0,0,0,1.119,0" transform="translate(26.352 46.666)" fill="#ffc20e"/>
  <path id="Path_60119" data-name="Path 60119" d="M3.436,12.557l-.065.01a1.988,1.988,0,0,1-.426.017,1.7,1.7,0,0,1-.242-.03.714.714,0,0,1-.255-.125.5.5,0,0,1-.125-.246,3.312,3.312,0,0,1-.1-.9V1.115A1.115,1.115,0,0,0,0,1.115V11.343a5.055,5.055,0,0,0,.237,1.665,2.22,2.22,0,0,0,.842,1.173,2.954,2.954,0,0,0,.943.432,3.065,3.065,0,0,0,.375.066,3.344,3.344,0,0,0,.436.027,4.8,4.8,0,0,0,.565-.037l.318-.04a1.046,1.046,0,0,0,.556-1.824,1.038,1.038,0,0,0-.832-.248" transform="translate(30.725 42.27)" fill="#ffc20e"/>
  <path id="Path_60120" data-name="Path 60120" d="M3.512,0A1.117,1.117,0,0,0,2.4,1.113V8.822a3.322,3.322,0,0,1-.1.905.527.527,0,0,1-.125.248.733.733,0,0,1-.255.123,1.728,1.728,0,0,1-.243.03,2.109,2.109,0,0,1-.427-.018L1.186,10.1A1.045,1.045,0,1,0,.91,12.174l.318.04a4.635,4.635,0,0,0,.565.038,3.354,3.354,0,0,0,.437-.027,3.223,3.223,0,0,0,.375-.066,2.976,2.976,0,0,0,.944-.432,2.239,2.239,0,0,0,.843-1.174,5.086,5.086,0,0,0,.236-1.666V1.113A1.117,1.117,0,0,0,3.512,0" transform="translate(30.725 24.708)" fill="#ffc20e"/>
  <path id="Path_60121" data-name="Path 60121" d="M1.116,0A1.117,1.117,0,0,0,0,1.113V11.732a1.114,1.114,0,1,0,2.228,0V1.113A1.117,1.117,0,0,0,1.116,0" transform="translate(27.521 19.218)" fill="#ffc20e"/>
  <path id="Path_60122" data-name="Path 60122" d="M20.9,4.534H14.54a1.115,1.115,0,0,0,0,2.23h6.3a1.922,1.922,0,0,1,1.434.4,2.346,2.346,0,0,1,.385,1.524,2.348,2.348,0,0,1-.385,1.525,1.935,1.935,0,0,1-1.434.4H8.309v-9.5a1.115,1.115,0,1,0-2.23,0V13.8a1.935,1.935,0,0,1-.4,1.436,2.348,2.348,0,0,1-1.523.383,2.345,2.345,0,0,1-1.524-.384,1.935,1.935,0,0,1-.4-1.435V9.306A1.115,1.115,0,1,0,0,9.306v4.555A3.662,3.662,0,0,0,1.143,16.9a4.6,4.6,0,0,0,2.906.84H4.26a4.6,4.6,0,0,0,2.905-.84,3.663,3.663,0,0,0,1.143-3.041V12.847H20.9a3.655,3.655,0,0,0,3.04-1.145,4.6,4.6,0,0,0,.84-2.906v-.21a4.607,4.607,0,0,0-.84-2.908A3.658,3.658,0,0,0,20.9,4.534" transform="translate(0 19.217)" fill="#ffc20e"/>
  <path id="Path_60123" data-name="Path 60123" d="M2.678,1.344A1.338,1.338,0,1,0,1.34,2.688,1.343,1.343,0,0,0,2.678,1.344" transform="translate(18.932 34.04)" fill="#ffc20e"/>
  <path id="Path_60124" data-name="Path 60124" d="M1.341,0a1.34,1.34,0,1,0,1.344,1.34A1.344,1.344,0,0,0,1.341,0" transform="translate(26.126 42.27)" fill="#ffc20e"/>
  <path id="Path_60125" data-name="Path 60125" d="M1.341,0a1.34,1.34,0,1,0,1.344,1.34A1.344,1.344,0,0,0,1.341,0" transform="translate(21.247 42.27)" fill="#ffc20e"/>
  <path id="Path_60126" data-name="Path 60126" d="M1.343,2.687A1.345,1.345,0,1,0,0,1.342,1.347,1.347,0,0,0,1.343,2.687" transform="translate(32.948 20.177)" fill="#ffc20e"/>
  <path id="Path_60127" data-name="Path 60127" d="M16.453,36.286h-.009a1.357,1.357,0,0,1-.264-.026l-.017,0-.032-.005-.021-.005-.019,0c-.066-.018-.132-.039-.193-.062l-.016-.006-.023-.009-.03-.014-.018-.009-.009,0-.009,0L11.18,33.882a1.5,1.5,0,0,1-.688-2.006,1.507,1.507,0,0,1,1.348-.841,1.486,1.486,0,0,1,.657.153l2.452,1.2V15.179L3,9.817v5.637a1.5,1.5,0,1,1-3,0V7.47a.5.5,0,0,1,.005-.062c0-.012,0-.024,0-.036s0-.025,0-.038,0-.05.008-.074a.737.737,0,0,1,.018-.077l.008-.029,0-.015a.636.636,0,0,1,.023-.093.585.585,0,0,1,.023-.061C.1,6.971.105,6.959.11,6.946L.127,6.9c.009-.023.017-.043.026-.063S.176,6.8.188,6.78l.017-.029.019-.034a.69.69,0,0,1,.038-.063.742.742,0,0,1,.046-.06l.018-.023.02-.026A.682.682,0,0,1,.4,6.483c.015-.016.031-.031.047-.045l.031-.028L.5,6.383a.656.656,0,0,1,.055-.05C.58,6.316.6,6.3.627,6.285l.029-.019.031-.022a.5.5,0,0,1,.052-.035,1.455,1.455,0,0,1,.2-.1l14.948-6a1.5,1.5,0,0,1,1.119,0l14.947,6a1.454,1.454,0,0,1,.2.1.442.442,0,0,1,.043.028l.026.018.025.017c.031.02.06.04.087.062a.562.562,0,0,1,.051.046l.024.023.017.015a.782.782,0,0,1,.068.066.549.549,0,0,1,.051.062l.017.022.014.016a.731.731,0,0,1,.056.071.632.632,0,0,1,.039.064l.017.031.007.012c.016.026.032.053.046.081a.885.885,0,0,1,.034.082l.008.021a.967.967,0,0,1,.04.1.732.732,0,0,1,.02.08l.006.028.005.022c.007.029.014.057.019.085s.007.061.009.091l0,.021c0,.01,0,.02,0,.03a.686.686,0,0,1,.006.069.024.024,0,0,1,0,.008.043.043,0,0,0,0,.006l0,.016V27.484a1.491,1.491,0,0,1-.842,1.347l-14.947,7.3-.009,0-.009,0-.048.023-.026.01L17,36.18c-.064.024-.128.045-.193.062l-.022.005-.018,0-.032.005-.018,0A1.343,1.343,0,0,1,16.453,36.286ZM29.9,9.817,17.949,15.179V32.387L29.9,26.547Zm-13.448-6.7L5.334,7.577l11.115,4.989L27.563,7.577,16.449,3.116Z" transform="translate(27.135)" fill="#fff"/>
</svg>
